General
Complete name                    : Jacob´s Ladder.mkv
Format                           : Matroska
File size                        : 1.13 GiB
Duration                         : 1h 48mn
Overall bit rate                 : 1 493 Kbps
Writing application              : HandBrake 0.9.4

Video
ID                               : 1
Format                           : AVC
Duration                         : 1h 48mn
Bit rate                         : 1 016 Kbps
Width                            : 720 pixels
Height                           : 560 pixels
Display aspect ratio             : 16:9
Frame rate                       : 25.000 fps
Resolution                       : 8 bits
Colorimetry                      : 4:2:0
Scan type                        : Progressive
Bits/(Pixel*Frame)               : 0.101
Stream size                      : 786 MiB (68%)
Writing library                  : x264 core 79

Audio
ID                               : 2
Format                           : AC-3
Format/Info                      : Audio Coding 3
Codec ID                         : A_AC3
Duration                         : 1h 48mn
Bit rate mode                    : Constant
Bit rate                         : 448 Kbps
Channel(s)                       : 6 channels
Channel positions                : Front: L C R, Side: L R, LFE
Sampling rate                    : 48.0 KHz
Stream size                      : 347 MiB (30%)
Language                         : English

Text #1
Language                         : English

Text #2
Language                         : German

Text #3
Language                         : Spanish

Text #4
Language                         : Portuguese

Text #5
Language                         : Dutch

Text #6
Language                         : Turkish

Text #7
Language                         : Norwegian

Text #8
Language                         : Swedish

Text #9
Language                         : Danish

Text #10
Language                         : Finnish

Menu
00:00:00.000                     : Chapter 1
00:07:00.440                     : Chapter 2


